<svg xmlns="http://www.w3.org/2000/svg" width="439" height="426" fill="none"><path fill="#FCD6EA" d="M387.615 240.959c0 10.536-68.071 19.031-152.084 19.031s-152.084-8.495-152.084-19.031c-11.474 9.874-20.3 184.078 152.084 184.078 168.964 0 165.709-170.563 152.084-184.078z"/><mask id="a" width="316" height="186" x="78" y="240" maskUnits="userSpaceOnUse" style="mask-type:luminance"><path fill="#fff" d="M387.614 240.954c0 10.536-68.071 19.031-152.084 19.031S83.446 251.49 83.446 240.954c-11.474 9.874-20.3 184.078 152.084 184.078 168.964 0 165.709-170.563 152.084-184.078z"/></mask><g mask="url(#a)"><path fill="#FCD6EA" d="M235.475 393.98c84.512 0 153.022-68.51 153.022-153.021 0-84.512-68.51-153.022-153.022-153.022-84.511 0-153.021 68.51-153.021 153.022 0 84.511 68.51 153.021 153.021 153.021z"/><path fill="#E44B99" d="M371.337 264.728c.276.937.938 1.765 1.324 2.647.607 1.545.717 3.2 1.269 4.744.055.111.11.221.11.331.387.828 1.269 1.435 1.324 2.372 0 0 .331 2.483.552 2.869.441.772.441.772 2.537 2.427l-.386-2.482c-1.655-6.123-1.655-6.123-3.53-8.22l-1.214-4.082 1.048.773-.551-1.986-1.103-1.876c-.276-.882-.718-2.096-.993-3.034-.276.056-.442.111-.497.773-.055.662.276 1.324.276 1.986h-.11c-.221-.166-.221-.166-.387-.111-.11.441-.11 1.434.331 2.869zm-.22 4.137a118.71 118.71 0 0 0-1.159-6.123v-.276c.056-.331.662-3.089.662-3.089.331-.386.331-.386 1.986-.331l1.71 5.185 1.104 1.931 1.323 5.461c.938 1.489.938 1.489 2.759 8.771l.661 6.233-1.379-1.213c-2.537-2.096-2.537-2.096-3.861-4.524l-.165-.993c-.111-.772-.111-1.489-.331-2.261-.276-.883-.993-1.545-1.269-2.372-.497-1.379-.938-3.365-1.048-4.137-.055-.276-.111-.662-.331-.883l-.442-.938c-.11-.11-.22-.276-.22-.441zm14.839 57.038.11.11.717-3.916c0 .055 0 .11-.055.165 0-.221-.055-.441-.055-.662l-.717 4.303zm-5.075-12.853a4.001 4.001 0 0 0 .11 1.324c.387-.387.883-.883 1.324-1.269l.828-.497.276.828.882-2.979.276.165c.331.497.276.773.166 1.159-.331 1.324-.331 1.324.055 2.537l.276-.441.606-1.158.055-.442c-.055.055-.055.055-.165.386v-.331c.221-2.261.441-4.192.441-9.046l-.386-.442-.827.828c-.111 1.103-.221 1.214-.276 1.269-.055 0-.221 0-.828.055-.275 1.324-.606 3.144-.882 4.468l-1.876 2.813c0 .221-.055.497-.055.773z"/><path fill="#E44B99" d="M386.067 302.568c.055 5.13-.221 7.667-.497 10.095.717-1.876.717-1.876.883-2.097.331.166.331.166.662.276.606-2.703 1.489-6.84 1.048-9.598v-.11c-.111.165-.386 1.985-.386 1.985-.056.221-.056.497-.387.828-.11-.386-.275-.938-.441-1.324l-.441-.11-.441.055zm-5.518-.771.166 1.931c0 .055.055.055.055.11.166.221.166.221 1.214 2.759.551-.883.827-1.49.772-1.876-.055-.441-.497-.772-.607-1.158-.11-.331 0-.662-.055-.993-.055-1.048-.055-1.048-1.048-2.703-.497 1.379-.497 1.765-.497 1.93zm-6.839 38.504c-1.214 2.924-3.2 9.985-3.2 10.04-.606 2.537-.331 5.13-.717 7.667-.22 1.655-1.324 3.145-1.599 4.8 0 .165 0 .386.11.551.717 0 1.324 0 3.972-4.358.606-.993.606-.993.937-1.213.056 0 .166.055.221.11.331-.276.607-.552.993-.827 0 1.324-1.324 3.916-2.427 5.902 2.262-4.247 5.185-9.984 7.171-14.342 1.71-4.689 3.972-11.033 5.351-15.777.276-1.103 1.82-8.385 1.489-10.701-.055-.166-.055-.221-.055-.276 0-.055 0-.055-.055-.111 0-.055 0-.11-.055-.11 0-.055 0-.055-.055-.11 0-.055 0-.055-.056-.111 0-.055 0-.055-.055-.11 0-.055 0-.055-.055-.11v-.055c-.221.22-.386.331-.607 2.592-.331 3.476-.496 3.696-2.648 6.84.166-1.599.442-3.695.662-5.295l.276-2.813 1.048-4.413c-.937.331-2.096 5.847-2.096 5.902-.552 2.813-.551 2.813-2.703 4.689-.331.276-.607.496-.827.993-.883 1.71-.883 3.64-2.041 5.295-1.986 2.979-1.986 2.979-2.979 5.351zm-2.372-75.57c.275.938.937 1.765 1.323 2.648.607 1.544.718 3.199 1.269 4.744.055.11.111.22.111.331.275.606 1.048.937 1.268 1.599.386 1.104.276 2.262.497 3.365.165.717.165.717 2.592 2.703-.11-.717-.22-1.71-.331-2.427l-1.323-4.799c-.331-1.379-.607-1.71-.938-2.041-1.159-1.214-1.159-1.214-2.483-5.461l1.049.772-.552-1.986-1.103-1.875-.993-3.034c-.276.055-.442.11-.497.772-.055.662.276 1.324.276 1.986h-.11c-.221-.166-.221-.166-.386-.11-.111.386-.111 1.379.331 2.813zm-198.917 94.282c-.441 2.979-1.048 6.896-1.379 9.819a790.454 790.454 0 0 0-9.764 4.855c.221.937.441 1.875.662 2.758-1.379 2.647-3.2 6.178-4.413 8.936l2.262 2.593c-1.379 2.647-1.379 2.648-2.262 3.971-.772.056-1.876.166-2.648.221l-1.655 2.593 1.159 4.578 2.096.166a343.319 343.319 0 0 1 1.986 3.034v1.986l7.943 4.523.331 1.765c-16.769-6.73-20.355-9.874-31.994-28.133-4.303-6.73-4.524-14.508-7.116-21.624-2.538-6.95-12.467-8.329-15.17-15.114-3.475-8.551-3.475-8.551-1.876-23.279l3.696-3.806.497-4.193-1.71-2.151-2.317 1.324-2.262-3.806-2.537-3.972-.497-5.847-2.703-2.372-1.599-2.648-3.31-1.434c-1.048-3.31-2.482-7.723-3.31-11.088.552-1.876 1.103-3.696 1.765-5.516.497-3.2 1.048-7.447 1.765-10.592l-2.261 6.951-.497 4.744c-.386.11-.882.221-1.213.331-.662-1.82-1.38-5.075.827-6.399l.442-3.586c2.978-6.619 3.916-13.845 7.777-20.189 2.924-4.744 8.771-7.337 11.916-11.915l3.199-4.579 2.151-.772 5.02-6.454 2.483-4.579c-1.269-.386-2.979-.882-4.248-1.379l-3.806 2.869c-.662-.331-1.545-.773-2.041-1.214l2.758-2.592.11 1.489 1.49-.883 2.096-2.372 2.317-2.096 2.096-.717 2.758-2.262c1.213-.165 2.813-.441 4.027-.606l3.034-1.159c.607.441 1.324 1.103 1.93 1.49 1.545 2.096 2.483 2.868 4.138 3.916 1.434-.221 1.434-.221 4.909-1.103.055 2.758-1.765 5.406-.882 8.219 1.379.221 1.654.221 3.033.441l2.593-2.923c1.821-1.379 1.821-1.379 3.089-2.427-.717-.221-1.82-.276-2.592-.166-.276-.221-.607-.496-.883-.717 1.214-1.214 3.53-2.206 5.185-2.924.166 1.324.166 1.324 0 3.2l4.358-.055c.055.22.055.22-4.744 6.454l2.648 1.158 2.427-2.648 3.255-2.151 2.703-.331-1.435 1.986-.441 3.089-2.482 4.248a923.825 923.825 0 0 0-11.915 2.702 5.529 5.529 0 0 1-.662.166c-2.758.827-4.579 3.034-4.579 5.516 0 1.986-.055 4.248-.22 5.682l.055.607c.11 1.6 2.317 2.427 3.696 1.324l.331-.276 4.799-3.365 4.744-5.847c14.011-7.392 12.467 11.584 11.97 12.908-2.372 6.233-10.646 1.103-15.832 2.482 2.979 7.999 2.979 7.999-15.169 10.536-1.71.221-1.986.276-3.807 1.49-2.813 1.82-2.482 5.35-5.13 7.226-3.309 2.317-8.109 1.71-11.198 4.358l-2.537 9.102c-.442.165-.607.275-1.048.496-1.71-.552-1.6-.772-.056-4.854l.552-3.365-2.703-1.214c-1.931-.496-4.578-1.158-6.454-1.71l-6.288 4.91-2.924 7.667 1.158 4.744 2.538.221 2.317-5.516 3.971 1.158-1.489 3.696c-.331.552-.827 1.214-1.158 1.765.165 0 .386-.055.496-.055l-1.765.221-.772 3.971 4.633 3.696-1.93 6.565 1.323 3.309 2.759-.441 2.703 3.641 2.482-2.703 3.42-.883 4.413 4.413 8.054 1.435c2.041 2.868 4.689 6.785 6.84 9.598l4.634-.497c9.212 16.494 10.646 16.66 24.547 18.204l8.771 6.399c-2.207 3.365-5.296 7.888-6.454 11.584z"/><path fill="#E44B99" d="m108.487 290.446-.497.055c.441-.662.772-1.213 1.159-1.765l-.662 1.71zm117.276-69.62a.766.766 0 0 1-.221.165c-.827.552-1.986.276-2.813.883-.662.441-.607 1.158-.938 1.71-3.034 5.24-4.137 6.564-4.523 6.73-.056.055-.166.055-.221.11-.496.22-1.269.165-1.765.276-2.262.496-4.468 1.048-6.675 1.544-.772.166-.772.166-2.262 0l-3.64-.331c-1.048-.055-2.979-.11-6.51 6.068-.937 1.655-1.213 2.151-2.647 2.593-1.655.551-5.792 0-6.068-.772 0-.056-.055-.166 0-.276.441-1.821 1.379-3.586 1.765-5.406.165-.662-.331-1.379.11-2.041.276-.442.276-.442 5.517-3.917l-2.483-.938c.111-.496.662-1.93 3.862-4.302-1.545-.166-3.145-.386-4.634-.552l-2.262-.827c.717-1.766.993-1.71 1.49-1.655 2.703.22 2.703.22 5.847-2.207 2.537-.331 2.537-.331 6.95.111.828-.662 1.876-1.6 2.703-2.317 4.689-.276 9.378.165 14.067.165l1.765 2.427 3.089.717c.607 1.324.607 1.821.497 2.042zm147.781 26.922c1.324 3.034 3.2 7.116 4.303 10.261l-2.703-3.641-2.593-7.061c-1.875-2.648-4.302-6.178-6.343-8.716l-1.49-1.82c-3.53-4.965-3.861-5.406-6.288-7.943 0-.056.055-.111.055-.166.717.221 2.317 1.876 4.854 4.91 1.269 1.544 1.379 1.654 1.986 1.765 2.538 3.696 6.178 8.495 8.219 12.411zm-46.502 67.958c-2.041 3.144-1.6 7.006-3.806 10.15-3.917 5.571-9.488 9.929-14.012 15.059.773 3.421 1.876 7.944 2.593 11.364-1.82 7.006-2.869 9.102-3.365 10.15-1.434 2.924-7.116 2.151-7.281 6.178-.276 6.454-.276 6.454-.828 7.006l-18.755 13.956c-4.082 2.151-9.047 1.269-13.239 3.034-5.13-4.634-11.198-23.279-11.198-23.444-.166-.772 1.268-2.262 2.758-3.255 1.213-.827 2.813-6.895 2.813-6.95.441-3.586-.662-5.075-5.902-12.246-1.876-2.593-.607-7.061-.607-10.15l-1.655-1.545c-8.826-5.958-9.929-6.73-21.238-3.917-3.585.883-6.233 4.193-10.591 3.034-4.303-1.158-10.426-8.605-10.481-8.715-.055-.055-4.358-5.572-4.578-6.951l1.324-16.659c.33-2.317 3.089-2.703 4.523-4.137 1.71-1.71.551-4.027 1.82-5.847.662-.938 1.765-1.986 2.538-2.814 4.358-2.537 4.578-7.502 8.274-10.37.717.551 1.655 1.213 2.317 1.765l20.741-3.972c3.034.552 3.751.662 3.641 5.847-.11 3.696 15.721 4.138 15.887 4.138.276-.993.662-2.317.938-3.31 17.762 3.641 19.141 2.923 21.623 1.6l3.476 4.744-1.986 1.268 2.592 2.924c2.041 2.924 4.8 6.785 6.841 9.709l2.592 3.751c8.22 9.433 8.22 9.433 15.17 8.164 4.523-2.483 5.351-2.979 5.737-3.2.221.055.496.111.662.166.607 1.324.827 3.144.662 3.475z"/><path fill="#E44B99" d="m347.011 214.263.331.938.993 1.214c1.269 1.213 8.551 7.943 8.551 7.943-.442-.165-1.049-.386-1.49-.551l-.882-.056c-5.075-4.578-5.517-4.909-7.116-6.123.165.552.165.552 3.364 3.751-.496.111-1.103.276-1.599.442-.166 2.041-.166 2.041 4.413 6.73.882-.056 1.986-.111 2.868-.221 4.799 3.972 6.123 6.399 8.937 11.639 2.316 4.413 7.943 7.227 8.053 12.688-2.206-1.269-2.813-3.586-4.744-5.075 1.931 10.646 13.35 18.259 12.798 29.733l-1.103 2.372-.497 5.792 1.49 3.696 1.875 4.357v4.524l-.662 3.42c-.937-2.096-2.096-4.91-3.144-6.951.717 4.138 1.269 8.275 1.545 12.467 4.027 5.13.22 11.695 4.027 16.825.772-.552.772-.552 1.71-2.593 0 .221.11.552.055.772l-.717 3.917-.056.055-.882 1.545-1.71 3.42c-.441-1.104-.993-2.593-1.6-3.641-1.6-8.771-1.875-9.874-3.53-15.887l-1.379-1.765 1.213-5.296-.11-2.261-1.545-6.841-1.71-1.71-3.53-5.516-3.862-.772c-2.758 3.199-8.55 16.935-1.268 24.216l1.103 2.869c.221 2.372.055 2.703-2.869 3.034-1.82-2.372-4.247-5.572-6.178-7.944-1.82-.717-1.82-.717-2.317-2.427-1.985-6.895-4.413-10.26-9.212-17.045-7.778-4.744-9.488-5.075-10.205-5.241-2.041 1.931-2.041 1.931-4.909 4.027-.331 3.475 2.758 5.847 4.027 8.771l-6.013 6.399-6.509 1.931.331 5.461-5.517 1.269c-3.696-.111-5.406-2.979-7.833-6.951l-4.633-1.6a924.076 924.076 0 0 0-10.647-14.949l-3.475-4.744-.993-1.324 1.655-5.516.441-3.199c-.496-2.207-1.048-4.358-1.6-6.51l5.792 1.379 5.793-1.71c.055-.11 3.806-14.342 2.206-24.768-1.048-.717-2.482-.937-3.365-1.875.166-1.159.166-1.159 2.979-4.303-4.027-8.219-5.572-9.267-8.881-11.584-1.104-.772-1.931-1.324-2.427-3.972 1.765-1.71 4.247-.717 6.288-1.269-.331-.772-.772-1.875-1.103-2.647l-5.406-2.759c-.883-1.048-.883-1.048-1.269-1.93.055-.055.166-.166.221-.276 8.385-.331 15.721 3.31 23.665 4.578 1.655-.772 3.806-1.82 5.406-2.702 2.813 1.599 2.923 1.654 3.916 1.93 3.034-3.972 3.034-3.972 9.433-5.626-.166-1.048-.165-1.048-1.214-2.924.662-.331 1.545-.827 2.262-1.048l3.696 1.544c1.269.718 2.979 1.655 4.192 2.428l4.082 4.026zm-109.497 34.643c-1.048 1.434-1.876 1.876-5.406 3.641a7.202 7.202 0 0 1-.938-.441l.276-3.034 1.655-1.214-2.648-1.986-.662-4.523 1.986-1.159.662 1.876c.662.607 1.6 1.379 2.262 1.765 1.765.938 2.537 1.931 2.537 1.986 0 .11.938 2.207.276 3.089z"/><path fill="#E44B99" d="M299.958 229.214c1.434 2.483 3.089 4.855 4.413 7.392-.828 1.435-3.034 2.041-3.2 3.917 0 0-.11 1.379 2.648 1.986 2.372.551.993 10.26.993 10.315-.938 4.91-.055 10.04-2.262 14.839-1.765.552-4.082 1.269-5.847 1.82l-5.792-1.379-.165-.055c-.662.717-.662.717-2.262 6.123-.11.055-10.757 3.586-12.136-.331 1.82-1.379 4.192-1.6 6.289-2.427-2.262-1.6-2.262-1.6-11.309-1.434.055 1.489.166 3.475.221 4.964l-.11 2.152-4.027-4.027-5.572-3.696-2.813-4.248-3.365-.827-2.703-.496c-.221.717.441 6.233 5.461 5.681 1.214.938 2.814 2.152 4.027 3.034l-1.158.993-2.262-1.269.717 3.034-2.096.497-1.545-.717 1.048-2.538-2.041-1.434c-.772 0-1.544.055-2.316.055l-3.2-3.696-2.096-.331c-1.82-.276-2.041-.165-2.482.111-.056.717-.166.993-.607 2.151a120.516 120.516 0 0 0-3.917-1.765l-.827 1.71-4.193 5.902-1.544 2.317c-3.475.276-4.358.221-4.468.221l-6.289-1.545c-1.324-8.605 2.317-12.577 5.296-11.419 1.544.607 1.269 3.09 3.53 2.814 1.876-.221 1.876-.221 4.303-3.751-.552-.607-1.269-1.435-1.82-2.041l-2.372-1.49c.882-.386 1.268-.607 3.199-1.82-.717-.331-1.655-.717-2.372-1.048 3.751-1.876 4.413-2.207 5.792-4.137.055.22.11.551.166.827a84.53 84.53 0 0 0 3.695-.441l.993-2.703 2.097.496 1.544.166c-.882-2.317-.882-2.869-.827-3.365 0 0 1.71-1.159 2.813-1.159.166.662.166.662.221 3.2 2.261.055 4.413.496 6.674.662.497-.607 1.104-1.434 1.6-2.041l2.207 1.875 3.199-2.151c-1.6-2.207-1.765-2.703-1.875-3.144.827-.221 1.71-.166 2.537-.276.607-.772 1.434-1.821 2.096-2.648-7.723-.607-7.612-2.317-6.233-7.061-1.6.717-3.696 1.6-5.241 2.317-.772 3.034-.772 3.034 1.655 5.185-.551.773-1.324 1.821-1.875 2.593-2.979 1.82-4.634-2.041-7.171-2.593l-1.986 1.986-1.655-.827c-.497-1.048-1.876-4.358-1.49-4.965 0 0 3.807-1.986 5.241-2.482.607-.221 1.103-.331 1.655-.828 1.434-1.268.331-3.365 1.986-4.523 3.309-2.427 4.964-2.648 15.721-4.027 2.979 2.482 2.979 2.482 5.847 2.703 1.765.166 3.475.717 2.538 3.917-1.821-.331-4.248-.828-6.013-1.159-.166 4.579 6.73 2.593 7.116 2.317 0 0 .441-.331 1.269-2.096.441-.11 1.048-.221 1.544-.331l3.145-3.42 4.909-.276 3.144-.993 1.49-.772 3.144 1.93.552-.772-1.379-1.489-3.641-1.821-.166-1.985c.386-.552.442-.607.883-.773.993.111 7.999 4.965 9.102 6.84zm-75.133 25.321c-3.42-.276-3.42-.276-3.696-.552-.607-.717-1.269-1.82-1.269-1.82-.11-.828.386-1.876.552-2.648l2.537-1.159 1.048-.386 1.71-2.151 1.986 2.537.442 2.648-3.31 3.531zm163.393 51.411c-.055 2.096-.11 3.089-.386 6.785l-.331 4.082c-.22 1.876-.331 2.207-.331 2.317-.165-.11-.165-.11-.22-1.6l-.276 1.876-1.324-.221c-.993-1.269-.993-3.31-.883-9.488.166-1.379 1.269-2.482 1.379-3.861.221-2.593-.11-5.186.331-7.723.055-.496.331-.883.442-1.324 1.324 2.482.882 5.241 1.599 7.778v1.379zm-.663-14.07c.055.496.221 2.262.386 4.744l-1.931-9.157c-.441-1.765-1.268-3.42-1.765-5.13-.11-.442-.22-.662-.441-2.096.221.33.221.33.276.386.11-2.041-1.655-3.751-1.159-5.848 0 .056 3.42 6.344 4.634 17.101zm-62.003 65.258c-.22 1.379-.717 2.869-.937 3.2-1.49 2.372-4.524 3.475-6.123 5.737-.497.717-.497.717-.938 2.316-.883 3.255-.938 3.31-2.758 5.848-1.104 1.599-1.931 2.096-3.42 2.703-.828-.773-1.876-1.821-2.703-2.593l1.158-1.986 2.317-4.523c.662-2.096.496-2.317.331-2.648-2.151-3.53 3.144-3.31 3.199-3.31 1.269.111 1.269.111 6.841-7.061.661-.441.992-.496 1.213-.606.055.11 2.372 0 1.82 2.923zm53.62-8.498c-2.041 4.358-4.799 10.095-7.171 14.343l-.717 1.158-1.104 1.655-.937 1.214c0-.387 0-.387 1.654-2.979 4.193-6.565 6.344-11.915 6.565-12.467a2.353 2.353 0 0 1-.276-.662c5.571-12.191 5.571-12.191 6.123-13.901l1.048-3.586c.055-.165.11-.441.166-.606-1.49 4.799-3.365 11.198-5.351 15.831z"/></g><path fill="#FCD6EA" d="M235.534 259.442c83.994 0 152.084-8.52 152.084-19.031 0-10.51-68.09-19.031-152.084-19.031-83.993 0-152.083 8.521-152.083 19.031 0 10.511 68.09 19.031 152.083 19.031z"/><path fill="#fff" d="M235.534 253.98c-37.511 0-73.477-1.71-101.224-4.854-28.022-3.144-39.11-6.73-43.303-8.716 4.248-1.985 15.336-5.516 43.303-8.715 27.802-3.145 63.713-4.855 101.224-4.855s73.477 1.71 101.224 4.855c28.022 3.144 39.11 6.73 43.302 8.715-4.247 1.986-15.335 5.517-43.302 8.716-27.747 3.089-63.713 4.854-101.224 4.854z"/><mask id="b" width="434" height="254" x="5" y="0" maskUnits="userSpaceOnUse" style="mask-type:luminance"><path fill="#fff" d="M234.869 253.638c-37.511 0-73.477-1.71-101.224-4.854-28.023-3.144-39.11-6.73-43.303-8.716 4.248-1.985-177.403-33.98-21.734-147.284C91.225 76.345 200.337 0 237.848 0c37.51 0 167.805 62.224 195.552 65.368 27.967 3.144-58.197 172.715-53.949 174.7-4.248 1.986-15.336 5.517-43.303 8.716-27.802 3.089-63.768 4.854-101.279 4.854z"/></mask><g mask="url(#b)"><path fill="#B16668" d="M173.751 249.389c-.276-.055-.551-.11-.827-.055-.331 0-.662.11-.883.276-.276.165-.441.441-.552.717-.551-.827-1.323-1.545-2.151-2.096a6.622 6.622 0 0 0-2.813-.993c-.055-.717-.441-1.324-.938-1.82-.552-.442-1.214-.718-1.931-.718-.717 0-1.379.221-1.93.718a7.152 7.152 0 0 0-2.814-2.317 7.26 7.26 0 0 0-3.585-.607 7.51 7.51 0 0 0-3.42 1.213c-1.048.718-1.821 1.655-2.372 2.759-.111-.276-.276-.552-.497-.717-.165-.166-.386-.221-.607-.331-.22-.056-.441-.056-.662-.056-.22.056-.441.111-.661.221a1.3 1.3 0 0 0-.497.441 1.685 1.685 0 0 0-.386 1.104c-.552-.166-1.103-.221-1.71-.221-1.103 0-2.207.276-3.2.717a7.206 7.206 0 0 0-2.537 2.096c-.11-.331-.331-.607-.552-.827a1.65 1.65 0 0 0-.993-.331c-.331-.055-.717.055-1.048.165-.276.111-.496.331-.717.552-.22.221-.331.496-.441.772-.055.331-.11.717 0 1.048.055.331.221.662.441.938.276.276.662.497 1.048.662.386.11.828.166 1.214.055a5.966 5.966 0 0 0 1.158 1.876c.497.551 1.159.937 1.821 1.268.662.276 1.434.442 2.151.387.717 0 1.489-.166 2.151-.497.221.331.497.607.828.772.331.221.662.331 1.048.387.386.055.772.055 1.103-.056.386-.11.717-.275.993-.496.276.607.662 1.158 1.214 1.6a3.9 3.9 0 0 0 1.82.827c.662.11 1.379.055 1.986-.165.662-.221 1.213-.607 1.71-1.104a4.28 4.28 0 0 0 1.765 1.379 5.24 5.24 0 0 0 2.262.331 4.662 4.662 0 0 0 2.096-.827 3.963 3.963 0 0 0 1.379-1.765c.552.386 1.158.662 1.82.772.662.11 1.324.055 1.986-.165a3.81 3.81 0 0 0 1.655-1.104 4.212 4.212 0 0 0 .938-1.765c.276.221.662.331.993.386.331.055.717.055 1.048-.055.331-.11.662-.276.938-.496.276-.221.496-.497.662-.828.386-.055.772-.165 1.103-.386.331-.221.552-.552.717-.938.166-.386.166-.772.11-1.158-.055-.386-.275-.772-.496-1.048a3.762 3.762 0 0 0-.938-.497z"/><path fill="#9A4A4D" d="M150.14 250.326c-.275-.386-.662-.662-1.103-.717a1.833 1.833 0 0 0-1.324.166 2.825 2.825 0 0 0-1.158-.828 2.529 2.529 0 0 0-1.434-.11 2.117 2.117 0 0 0-1.269.607 2.825 2.825 0 0 0-.828 1.158c.221-.331.497-.607.883-.827.331-.221.717-.331 1.103-.386.386-.056.772 0 1.159.165.386.11.717.331.993.607l.275.276c.056-.056.111-.055.111-.111.11-.11.276-.165.386-.22.386-.166.827-.166 1.269-.055.386.11.772.386 1.048.717.11.165.22.386.275.606-.055-.386-.165-.772-.386-1.048zm8.827-1.821c.276-.331.607-.606 1.048-.662.441-.11.882-.055 1.269.166a2.656 2.656 0 0 1 1.103-.772c.441-.166.882-.221 1.324-.111.441.055.827.276 1.213.552.331.276.607.662.773 1.103a2.36 2.36 0 0 0-.883-.772c-.386-.166-.772-.276-1.158-.276-.662 0-1.324.276-1.766.717l-.275.276-.111-.11a.876.876 0 0 0-.386-.221c-.386-.165-.772-.165-1.158-.055-.386.11-.717.331-.938.662-.11.165-.221.331-.276.551-.11-.441 0-.772.221-1.048zm-5.681 5.133c.276-.331.607-.607 1.048-.662.441-.055.883-.055 1.214.165a2.671 2.671 0 0 1 1.103-.772c.441-.165.883-.221 1.324-.11.441.055.827.276 1.213.551.331.276.607.662.773 1.104-.221-.331-.497-.552-.828-.773a3.363 3.363 0 0 0-1.048-.331c-.386-.055-.717 0-1.103.111-.331.11-.662.331-.938.551l-.276.276-.11-.11a.892.892 0 0 0-.386-.221c-.386-.165-.772-.165-1.159-.055a1.64 1.64 0 0 0-.937.662c-.111.166-.221.331-.276.552.055-.331.165-.662.386-.938z"/><path fill="#E44B99" d="M152.568 225.721c-1.489-1.71-3.695-3.309-6.067-3.199-.056 0-.056.165 0 .165a7.57 7.57 0 0 1 3.199 1.214c.883.662 1.71 1.379 2.427 2.262a9.967 9.967 0 0 1 1.6 2.648c.331.937.607 1.93.827 2.923.055.166.442.441.442.11a9.409 9.409 0 0 0-2.428-6.123z"/><path fill="#547C32" d="M152.568 225.721c-1.489-1.71-3.695-3.309-6.067-3.199-.056 0-.056.165 0 .165a7.57 7.57 0 0 1 3.199 1.214c.883.662 1.71 1.379 2.427 2.262a9.967 9.967 0 0 1 1.6 2.648c.331.937.607 1.93.827 2.923.055.166.442.441.442.11a9.409 9.409 0 0 0-2.428-6.123z"/><path fill="#B9C175" d="M152.291 193.839c-1.655 1.765-6.233 2.262-8.109-2.537-1.765-4.524-3.696-8.771-4.247-10.481-.055-.221-.111-.441-.111-.662 0-.221.056-.441.166-.662.11-.221.221-.386.441-.552a1.32 1.32 0 0 1 .607-.331s.11-2.482 4.358-.827c4.192 1.655 7.171 4.247 8.991 8.385 1.876 4.137.718 7.116-2.096 7.667z"/><path fill="#E44B99" d="M155.216 203.544c-.11-.993-.22-1.986-.441-2.924a35.091 35.091 0 0 0-1.655-5.681c-1.379-3.751-3.31-7.337-5.737-10.536a35.4 35.4 0 0 0-4.468-5.075c-.055-.056-.11.055-.055.11a43.25 43.25 0 0 1 11.087 20.741c.221 1.048.497 2.151.662 3.255.221 1.103.331 2.206.497 3.309 0 .111.165.166.165 0 .166-1.103.111-2.151-.055-3.199z"/><path fill="#547C32" d="M155.216 203.544c-.11-.993-.22-1.986-.441-2.924a35.091 35.091 0 0 0-1.655-5.681c-1.379-3.751-3.31-7.337-5.737-10.536a35.4 35.4 0 0 0-4.468-5.075c-.055-.056-.11.055-.055.11a43.25 43.25 0 0 1 11.087 20.741c.221 1.048.497 2.151.662 3.255.221 1.103.331 2.206.497 3.309 0 .111.165.166.165 0 .166-1.103.111-2.151-.055-3.199z"/><path fill="#B9C175" d="M158.139 189.37c-4.799 1.489-8.385-2.262-7.171-8.164 1.214-5.903 7.392-12.412 9.709-10.647 1.434-1.434 4.688-.937 6.178 3.862 1.544 4.799.165 17.045-8.716 14.949z"/><path fill="#E44B99" d="M161.339 173.816a72.437 72.437 0 0 0-3.807 12.632c-.992 4.358-1.71 8.771-2.206 13.239a202.916 202.916 0 0 0-1.158 25.872c0 2.372.055 4.744.11 7.171.055 2.427 0 13.294.221 15.776.11.938 1.434.717 1.434-.165.11-4.303-.166-16.99-.221-21.293-.055-4.303 0-8.495.11-12.743.166-8.66.938-17.321 2.317-25.871.386-2.372.883-4.744 1.434-7.116.607-2.482 1.324-4.909 1.931-7.392 0-.11-.11-.22-.165-.11z"/><path fill="#547C32" d="M161.339 173.816a72.437 72.437 0 0 0-3.807 12.632c-.992 4.358-1.71 8.771-2.206 13.239a202.916 202.916 0 0 0-1.158 25.872c0 2.372.055 4.744.11 7.171.055 2.427 0 13.294.221 15.776.11.938 1.434.717 1.434-.165.11-4.303-.166-16.99-.221-21.293-.055-4.303 0-8.495.11-12.743.166-8.66.938-17.321 2.317-25.871.386-2.372.883-4.744 1.434-7.116.607-2.482 1.324-4.909 1.931-7.392 0-.11-.11-.22-.165-.11z"/><path fill="#B9C175" d="M147.936 208.291c-.883 2.868-5.075 4.633-9.543 2.261-4.469-2.372-12.522-15.28-8.22-16.218 0-2.206 12.798-2.868 18.369 5.462 4.027 6.068-.606 8.495-.606 8.495z"/><path fill="#E44B99" d="M154.168 213.309c-.497-.772-1.104-1.544-1.71-2.261a55.293 55.293 0 0 0-13.129-11.419c-1.821-1.214-3.696-2.262-5.682-3.255-.055 0-.055.111 0 .111 1.6.937 3.255 1.875 4.799 2.978a57.892 57.892 0 0 1 4.634 3.586 72.008 72.008 0 0 1 7.998 7.888c.718.828 1.324 1.655 2.041 2.427.718.828 1.49 1.655 2.207 2.483.11.11.276.11.221-.111-.442-.827-.883-1.654-1.379-2.427z"/><path fill="#547C32" d="M154.168 213.309c-.497-.772-1.104-1.544-1.71-2.261a55.293 55.293 0 0 0-13.129-11.419c-1.821-1.214-3.696-2.262-5.682-3.255-.055 0-.055.111 0 .111 1.6.937 3.255 1.875 4.799 2.978a57.892 57.892 0 0 1 4.634 3.586 72.008 72.008 0 0 1 7.998 7.888c.718.828 1.324 1.655 2.041 2.427.718.828 1.49 1.655 2.207 2.483.11.11.276.11.221-.111-.442-.827-.883-1.654-1.379-2.427z"/><path fill="#B9C175" d="M159.849 205.203c-3.255-1.765-2.262-6.012 3.585-9.929 5.792-3.916 17.432-3.034 17.321-.717 2.428.717.276 8.33-7.171 13.791-7.392 5.516-14.728 1.655-13.735-3.145z"/><path fill="#E44B99" d="M168.842 199.628c-5.516 1.876-10.315 5.406-13.79 10.15-.221.276.165.828.386.552 3.475-4.634 8.054-8.33 13.404-10.702z"/><path fill="#547C32" d="M168.842 199.628c-5.516 1.876-10.315 5.406-13.79 10.15-.221.276.165.828.386.552 3.475-4.634 8.054-8.33 13.404-10.702z"/><path fill="#B9C175" d="M160.015 225.722c-3.309 2.372-.717 6.344 3.641 8.827 3.751 1.985 8.054 2.482 12.136 1.379 2.427-.773 2.979-1.269 2.979-1.269-.276-2.096-.717-4.082-1.434-6.068-.938-2.151-2.428-3.972-4.358-5.241a12.436 12.436 0 0 0-6.51-2.041c-6.067-.165-6.95 2.207-6.454 4.413z"/><path fill="#E44B99" d="M171.711 229.805c-2.096-1.6-4.413-2.868-6.84-3.861-2.427-.883-5.461-1.435-7.778.055-.883.551-2.207 1.875-1.71 3.034.055.11.331.386.441.165.276-.662.552-1.268.938-1.875.496-.552 1.103-.993 1.82-1.214a9.502 9.502 0 0 1 5.406-.055c2.813.717 5.296 2.317 7.723 3.751z"/><path fill="#547C32" d="M171.711 229.805c-2.096-1.6-4.413-2.868-6.84-3.861-2.427-.883-5.461-1.435-7.778.055-.883.551-2.207 1.875-1.71 3.034.055.11.331.386.441.165.276-.662.552-1.268.938-1.875.496-.552 1.103-.993 1.82-1.214a9.502 9.502 0 0 1 5.406-.055c2.813.717 5.296 2.317 7.723 3.751z"/><path fill="#B9C175" d="M148.652 210.773c-.055-1.545-2.979-4.524-9.654-3.641-6.73.883-10.922 4.799-11.639 6.344-.717 1.489-.883 2.979.386 2.979 1.269.055 5.461-.497 8.44.11 2.979.607 9.267 2.979 12.743.993 3.475-1.986 1.93-5.792-.276-6.785z"/><path fill="#E44B99" d="M154.829 214.69c-4.082-5.075-11.639-5.13-17.431-3.696-1.931.442-3.751 1.159-5.516 2.097v.055a31.113 31.113 0 0 1 9.433-2.317c3.199-.331 6.454.11 9.432 1.269a12.276 12.276 0 0 1 3.917 2.758c.165.055.221-.055.165-.166z"/><path fill="#547C32" d="M154.829 214.69c-4.082-5.075-11.639-5.13-17.431-3.696-1.931.442-3.751 1.159-5.516 2.097v.055a31.113 31.113 0 0 1 9.433-2.317c3.199-.331 6.454.11 9.432 1.269a12.276 12.276 0 0 1 3.917 2.758c.165.055.221-.055.165-.166z"/><path fill="#B9C175" d="M148.431 222.853c-.606-2.206-3.475-3.42-7.171-3.641-1.82-.11-3.64.276-5.295 1.104-1.6.882-2.979 2.151-3.862 3.751-1.875 3.365-2.648 6.012-1.434 6.454 1.214.441 6.178.993 9.378 1.268 3.199.221 7.226-.441 9.819-2.923 2.592-2.538 1.655-5.572-1.435-6.013z"/><path fill="#E44B99" d="M148.598 222.522c-1.324-.331-2.703-.331-4.027-.11a17.705 17.705 0 0 0-3.751.938c-1.269.496-2.538 1.048-3.696 1.765-.607.331-1.214.717-1.82 1.103-.552.331-1.104.772-1.655 1.158v.056c.607-.276 1.158-.662 1.765-.993.552-.331 1.269-.717 1.875-1.048 1.159-.662 2.428-1.159 3.696-1.655a19.216 19.216 0 0 1 3.917-.938c1.269-.11 2.482-.055 3.751.055.221.055.11-.276-.055-.331z"/><path fill="#000" d="M148.598 222.522c-1.324-.331-2.703-.331-4.027-.11a17.705 17.705 0 0 0-3.751.938c-1.269.496-2.538 1.048-3.696 1.765-.607.331-1.214.717-1.82 1.103-.552.331-1.104.772-1.655 1.158v.056c.607-.276 1.158-.662 1.765-.993.552-.331 1.269-.717 1.875-1.048 1.159-.662 2.428-1.159 3.696-1.655a19.216 19.216 0 0 1 3.917-.938c1.269-.11 2.482-.055 3.751.055.221.055.11-.276-.055-.331z"/><path fill="#B9C175" d="M159.52 214.965c-3.034-1.434-3.31-6.454 5.516-8.771 8.826-2.372 15.666-1.545 16.052 1.379 1.766 1.103 1.986 5.241-4.909 8.219-6.84 2.924-17.266 4.689-16.659-.827z"/><path fill="#E44B99" d="M176.95 208.566c-2.703.221-5.406.662-8.054 1.435-2.482.551-4.854 1.434-7.171 2.592-.552.331-1.104.662-1.655 1.104-.221.165-.441.386-.662.606-.221.166-.331.331-.386.552 0 .055 0 .055.055.11 0 .055.055.055.055.111.055 0 .055.055.11.055h.111a9.008 9.008 0 0 0 1.379-1.159c.441-.331.938-.662 1.434-.937.938-.497 1.931-.993 2.924-1.324 2.427-.883 4.909-1.655 7.391-2.207 1.435-.331 2.924-.551 4.413-.772.111-.055.056-.166.056-.166z"/><path fill="#547C32" d="M176.95 208.566c-2.703.221-5.406.662-8.054 1.435-2.482.551-4.854 1.434-7.171 2.592-.552.331-1.104.662-1.655 1.104-.221.165-.441.386-.662.606-.221.166-.331.331-.386.552 0 .055 0 .055.055.11 0 .055.055.055.055.111.055 0 .055.055.11.055h.111a9.008 9.008 0 0 0 1.379-1.159c.441-.331.938-.662 1.434-.937.938-.497 1.931-.993 2.924-1.324 2.427-.883 4.909-1.655 7.391-2.207 1.435-.331 2.924-.551 4.413-.772.111-.055.056-.166.056-.166z"/><path fill="#B9C175" d="M158.141 213.587c.717-1.655 4.027-2.703 7.006.166 2.979 2.868 1.324 7.998 1.434 9.267-1.82-.221-2.758.717-5.571 1.269-1.6.276-3.2-.055-4.579-.828a7.292 7.292 0 0 1-3.034-3.53c-1.103-3.365-.662-6.013 4.744-6.344z"/><path fill="#E44B99" d="M158.03 213.204c.828.165 1.6.496 2.262.993a9.608 9.608 0 0 1 1.82 1.544 8.803 8.803 0 0 1 2.262 4.303c0 .055-.055 0-.055 0-.497-1.545-1.379-2.979-2.593-4.082a10.959 10.959 0 0 0-1.82-1.324 3.67 3.67 0 0 0-1.048-.497c-.331-.11-.662-.22-.938-.386-.11-.22-.055-.551.11-.551z"/><path fill="#547C32" d="M158.03 213.204c.828.165 1.6.496 2.262.993a9.608 9.608 0 0 1 1.82 1.544 8.803 8.803 0 0 1 2.262 4.303c0 .055-.055 0-.055 0-.497-1.545-1.379-2.979-2.593-4.082a10.959 10.959 0 0 0-1.82-1.324 3.67 3.67 0 0 0-1.048-.497c-.331-.11-.662-.22-.938-.386-.11-.22-.055-.551.11-.551z"/></g><mask id="c" width="434" height="254" x="5" y="0" maskUnits="userSpaceOnUse" style="mask-type:luminance"><path fill="#fff" d="M234.869 253.638c-37.511 0-73.477-1.71-101.224-4.854-28.023-3.144-39.11-6.73-43.303-8.716 4.248-1.985-177.403-33.98-21.734-147.284C91.225 76.345 200.337 0 237.848 0c37.51 0 167.805 62.224 195.552 65.368 27.967 3.144-58.197 172.715-53.949 174.7-4.248 1.986-15.336 5.517-43.303 8.716-27.802 3.089-63.768 4.854-101.279 4.854z"/></mask><g mask="url(#c)"><path fill="#547C32" d="M316.62 203.002c-1.489 4.524-2.592 9.157-3.365 13.846-1.434 8.992-.11 40.269.387 49.316l-1.545.551c-1.765-9.102-2.262-41.703-.496-50.805.882-4.523 2.041-8.991 3.53-13.349a48.656 48.656 0 0 1 6.233-13.405c.221-.275.497.331.442.552-1.545 4.413-3.696 8.716-5.186 13.294z"/><path fill="#547C32" d="M318.108 197.982c2.924-1.765 5.406-4.192 7.282-7.005a23.441 23.441 0 0 0 3.585-9.433c1.931-9.764 4.579-18.259 3.751-20.355-.827-2.151-10.15 7.281-14.728 16.88-4.524 9.543-2.427 15.059.11 19.913zm4.085 7.173c-.827-1.545 1.931-6.234 8.992-10.536 7.061-4.303 17.486-7.061 18.369-6.179.882.883-6.565 10.15-14.453 13.791-7.833 3.696-12.136 4.358-12.908 2.924zm-30.561-31.552c1.103-.938 11.088 8.329 14.729 17.652 3.144 8.109 3.861 12.853 2.868 14.507.055.111.11.221.166.276.772 1.379 1.434 2.814 1.93 4.358a15.833 15.833 0 0 1 .883 9.323c0 .165-.276 0-.276-.111-.717-2.703-1.048-5.516-1.931-8.164a32.494 32.494 0 0 0-2.096-4.964c-2.262 0-6.84-3.696-10.701-11.199-4.138-8.55-6.62-20.741-5.572-21.678zm23.444 54.108c-.993-1.434 1.324-6.399 7.944-11.419 6.619-5.02 16.714-8.771 17.652-7.943.993.772-5.572 10.756-13.019 15.169-7.502 4.413-11.694 5.572-12.577 4.193z"/><path fill="#547C32" d="M312.428 212.984c.276-1.158.883-2.206 1.765-2.979.993-.993 2.041-1.93 3.2-2.703 2.482-1.655 5.13-3.089 7.888-4.192.276-.11.607.496.386.662-2.262 1.71-4.744 3.144-7.116 4.744a19.041 19.041 0 0 0-3.089 2.482c-.441.442-.883.938-1.324 1.379-.386.497-.772 1.048-1.324 1.159-.607.11-.386-.386-.386-.552zm1.325 14.566a19.272 19.272 0 0 1 2.648-2.096 12.714 12.714 0 0 1 3.034-1.434c.276 0 .497.386.276.552-1.71 1.268-3.365 2.592-4.909 4.027-.773.717-1.435 1.489-2.097 2.261-.551.662-.937 1.434-1.048 2.262-.11.662-.827.772-.993 0-.551-2.151 1.766-4.248 3.089-5.572z"/><path fill="#B9C175" d="M351.76 238.585c2.592.441 5.295.275 7.833-.442a17.569 17.569 0 0 0 6.895-3.751c6.123-4.744 11.97-8.44 12.577-10.095.552-1.654-9.708-.882-17.266 2.428-7.557 3.42-9.046 7.612-10.039 11.86zm-8.55 1.433c-1.434 0-.883-7.061 2.482-12.467 3.365-5.406 7.888-8.44 8.716-8.44.827 0-.938 9.819-3.751 13.901-2.814 4.027-6.62 7.061-7.447 7.006zm-11.971 9.046c-1.655.276-2.592-7.557 0-14.342 2.593-6.785 6.84-11.143 7.778-11.419.938-.22 1.214 11.033-.993 16.218-2.206 5.13-5.737 9.378-6.785 9.543zm7.834.827c-.552-1.6 6.84-4.027 14.067-2.924 7.226 1.103 12.301 4.578 12.687 5.406.386.827-7.999 3.751-16.108 2.262-5.516-1.159-10.26-3.696-10.646-4.744z"/><path fill="#B9C175" d="M357.055 235.936c-6.013 2.427-11.749 5.461-17.155 8.991l.606-.717a30.304 30.304 0 0 0 2.703-3.861c.938-1.269 1.6-2.703 1.876-4.248 0-.276-.331-.11-.441 0-1.104 1.269-2.041 2.648-2.924 4.082-.827 1.159-1.71 2.262-2.648 3.476-1.269 1.599-2.648 2.978-4.082 4.468-1.544 1.048-3.034 2.096-4.578 3.144.606-.993 1.103-2.041 1.434-3.144.165-.607.386-1.214.551-1.821.166-.496.276-1.048.221-1.544 0-.276-.441 0-.552 0-.551.993-1.048 1.986-1.434 3.089-.496.993-.993 2.041-1.544 2.979-.607.993-1.324 1.93-2.096 2.868l-.773.772c-1.269 1.049-4.082 3.586-6.013 5.351l.552 1.821c1.876-1.876 3.806-3.696 5.847-5.351 2.262-1.821 4.358-3.531 5.737-4.579a28.893 28.893 0 0 1 3.089-.993 25.097 25.097 0 0 1 3.531-.717c1.324-.11 2.703 0 4.027-.165.22 0 .662-.442.276-.552-1.269-.386-2.648-.552-3.972-.386a20.599 20.599 0 0 0-3.696.496l3.31-2.261c5.902-3.806 12.246-6.84 18.038-10.867.496-.166.386-.442.11-.331z"/></g><mask id="d" width="434" height="254" x="5" y="0" maskUnits="userSpaceOnUse" style="mask-type:luminance"><path fill="#fff" d="M234.869 253.638c-37.511 0-73.477-1.71-101.224-4.854-28.023-3.144-39.11-6.73-43.303-8.716 4.248-1.985-177.403-33.98-21.734-147.284C91.225 76.345 200.337 0 237.848 0c37.51 0 167.805 62.224 195.552 65.368 27.967 3.144-58.197 172.715-53.949 174.7-4.248 1.986-15.336 5.517-43.303 8.716-27.802 3.089-63.768 4.854-101.279 4.854z"/></mask><g mask="url(#d)"><path fill="#547C32" d="M109.318 206.368c-.055-.11.111-.496.276-.331a29.734 29.734 0 0 1 3.751 8.054 66.6 66.6 0 0 1 2.152 8.054c1.103 5.516.772 25.154-.276 30.615l-.938-.331c.331-5.461 1.103-24.326.221-29.732-.442-2.814-1.104-5.627-2.041-8.33-.828-2.703-2.152-5.351-3.145-7.999z"/><path fill="#547C32" d="M111.69 199.307c-2.758-5.793-8.385-11.474-8.881-10.206-.497 1.269 1.103 6.399 2.261 12.302.276 2.041 1.049 3.971 2.152 5.681a15.197 15.197 0 0 0 4.358 4.248c1.544-2.868 2.868-6.233.11-12.025zm-10.314 14.617c-4.744-2.207-9.268-7.778-8.716-8.33.552-.551 6.84 1.103 11.088 3.751 4.247 2.593 5.902 5.406 5.406 6.344-.442.883-3.034.496-7.778-1.765zm22.781-4.248c-2.317 4.524-5.075 6.785-6.454 6.785a20.193 20.193 0 0 0-1.269 2.979c-.551 1.6-.717 3.31-1.158 4.91 0 .11-.166.165-.166.11a9.42 9.42 0 0 1 .552-5.627c.276-.882.662-1.765 1.158-2.592.056-.055.056-.111.111-.166-.607-.993-.166-3.861 1.765-8.715 2.207-5.627 8.219-11.198 8.881-10.647.662.552-.827 7.888-3.42 12.963zm-18.258 17.101c-4.524-2.648-8.44-8.661-7.833-9.157.606-.497 6.674 1.765 10.646 4.799 3.972 3.034 5.351 6.012 4.799 6.895-.607.828-3.089.11-7.612-2.537z"/><path fill="#547C32" d="M114.835 220.765c-.331-.055-.552-.386-.772-.717a10.64 10.64 0 0 0-.773-.828c-.551-.551-1.213-1.048-1.875-1.489-1.434-.938-2.924-1.82-4.303-2.868-.165-.111.055-.497.221-.387 1.655.662 3.254 1.49 4.744 2.538.717.496 1.324 1.048 1.931 1.655.551.496.937 1.103 1.048 1.82 0 .055.11.331-.221.276zm1.269 11.805c-.111.442-.497.386-.607 0a2.604 2.604 0 0 0-.607-1.379c-.386-.496-.827-.938-1.269-1.379a43.646 43.646 0 0 0-2.978-2.427c-.111-.11 0-.331.165-.331a9.178 9.178 0 0 1 1.821.827c.551.387 1.103.773 1.599 1.269.828.828 2.207 2.096 1.876 3.42z"/><path fill="#B9C175" d="M90.73 232.789c-4.58-1.986-10.758-2.482-10.427-1.489.331.993 3.862 3.199 7.558 6.068a11.068 11.068 0 0 0 4.192 2.261c1.545.442 3.144.497 4.744.276-.552-2.593-1.49-5.13-6.068-7.116zm6.784 3.697c-1.71-2.483-2.758-8.33-2.262-8.385.497 0 3.255 1.82 5.241 5.075 2.041 3.255 2.372 7.502 1.489 7.502-.496.055-2.758-1.71-4.468-4.192zm7.559 3.972c-1.324-3.089-1.159-9.929-.607-9.764.552.166 3.144 2.813 4.689 6.895 1.544 4.083.993 8.771 0 8.661-.607-.165-2.703-2.703-4.082-5.792zm-7.008 9.051c-4.91.882-9.929-.883-9.708-1.38.22-.496 3.31-2.592 7.667-3.254 4.358-.662 8.826.827 8.44 1.765-.22.662-3.089 2.207-6.399 2.869z"/><path fill="#B9C175" d="M93.597 238.473c3.476 2.427 7.337 4.248 10.868 6.565l1.985 1.379a14.796 14.796 0 0 0-2.261-.331c-.828-.055-1.6 0-2.427.22-.221.111.055.331.165.331.828.111 1.6.056 2.427.111.717.055 1.434.22 2.152.441.606.166 1.268.386 1.875.607.828.607 2.096 1.655 3.475 2.758a39.003 39.003 0 0 1 3.531 3.255l.331-1.104c-1.159-1.048-2.869-2.592-3.641-3.199l-.496-.497c-.442-.551-.883-1.103-1.269-1.71-.331-.551-.607-1.213-.938-1.82a11.429 11.429 0 0 0-.827-1.876c-.056 0-.331-.165-.331 0-.055.331 0 .662.11.938.11.386.221.717.331 1.103.221.662.552 1.269.883 1.876a81.586 81.586 0 0 0-2.759-1.876c-.827-.882-1.71-1.71-2.427-2.703-.551-.717-1.103-1.379-1.599-2.096a15.642 15.642 0 0 0-1.766-2.482c-.055-.11-.275-.166-.275 0a5.84 5.84 0 0 0 1.103 2.537c.496.828 1.048 1.6 1.655 2.317l.386.442a57.424 57.424 0 0 0-10.316-5.406c-.11-.056-.165.11.055.22z"/></g><mask id="e" width="434" height="254" x="0" y="0" maskUnits="userSpaceOnUse" style="mask-type:luminance"><path fill="#fff" d="M229.414 253.638c-37.511 0-73.422-2.372-101.169-5.516-28.022-3.144-39.165-6.068-43.358-8.054 4.248-1.985-177.403-33.98-21.734-147.284C85.77 76.345 194.882 0 232.393 0c37.51 0 167.805 62.224 195.552 65.368 27.967 3.144-58.197 172.715-53.949 174.7-4.248 1.986-15.225 6.675-43.193 9.874-27.802 3.09-63.878 3.696-101.389 3.696z"/></mask><g mask="url(#e)"><path fill="#21161A" d="M177.228 200.02c6.565-28.85 10.371-54.336 14.177-81.365 17.045-.497 34.036-.993 51.798-1.435-2.869 21.9-5.737 43.745-8.661 65.644-20.024.883-36.352 7.613-57.314 17.156z"/><path fill="#FFABCD" d="M183.792 326.287c9.874-38.339.827-5.793 11.253-42.31 2.427-8.551 5.516-16.99 5.296-25.927v-.055a237.127 237.127 0 0 0-1.159-17.652c-2.482-1.379-4.964-2.593-7.447-3.53-7.722-3.09-15.5-4.083-23.113-3.365 1.434-16.439 6.62-32.877 15.06-47.496 3.696-6.398 10.094-10.591 17.266-11.639a22.507 22.507 0 0 1 5.792-.11c12.356 1.213 25.044 4.137 38.338 7.502 15.831-1.655 32.491-6.785 48.488-2.262 5.682 1.6 10.26 5.682 12.687 10.922a23.125 23.125 0 0 1 1.434 4.303c3.365 16.053 6.951 27.03 4.91 43.524-9.984 1.82-22.451-1.876-28.078 2.041 0 .441 5.13 4.799 5.13 5.24-.11 5.572-1.379 17.432-1.489 23.058-.055 3.42.11 6.84.827 10.205 7.116 34.036.276-1.103 8.771 41.372"/><path stroke="#FFD2DA" stroke-linecap="round" stroke-linejoin="round" stroke-miterlimit="10" stroke-width=".552" d="M198.905 205.322a105.074 105.074 0 0 1 8.109 38.282m74.965-30.008c-1.655 7.447-2.427 15.059-2.427 22.617"/><path fill="#FCDBE7" d="M183.737 195.496c-4.799 10.702-6.564 22.451-8.109 34.036a42.63 42.63 0 0 1 16.108 7.281c-7.723-3.089-15.501-4.082-23.114-3.365 1.435-16.438 6.62-32.877 15.06-47.495 3.696-6.399 10.095-10.591 17.266-11.639-7.668 5.02-13.46 12.797-17.211 21.182zm128.749 42.753c-7.998.828-23.72 1.159-24.988.552 0-.442 0 .441 0 0-1.214.11-2.097-.442-2.759-.607 5.075-4.082 16.273-3.53 22.783-3.641 2.647-14.287-2.041-35.414-5.737-49.646 2.096.496 2.868 2.868 4.358 5.571a23.223 23.223 0 0 1 1.434 4.303c3.42 15.942 7.006 26.919 4.909 43.468z" opacity=".502"/><path fill="#EC7974" d="M273.323 181.708c-.166 4.634-.828 9.433-2.317 14.067-1.545 4.578-3.972 8.991-7.723 12.08-6.73 5.516-14.232 6.62-22.561 5.351-14.288-2.207-27.747-9.929-30.064-25.265-.717-4.688-.221-9.046 1.655-13.073 5.571.331 4.744-.055 10.536-.055 1.6 0 2.868-1.269 2.979-2.814.055-.993.11-1.985.11-2.923.055-3.365.552-6.399.221-9.709 8.77.276 20.796 1.82 29.291-1.434.717 6.288-.662 6.399 1.048 12.522 0 .055-.883 1.048-.827 1.103.662 2.317-.056 5.847 2.261 6.62 4.689 1.544 10.04 2.758 15.391 3.53z"/><path fill="#D15A61" d="M255.23 173.379c-5.241 1.766-10.923 2.207-16.329 1.159a32.103 32.103 0 0 1-12.963-5.627c.055-3.365-.055-6.73-.441-10.095 8.771.276 19.527-.937 28.023-4.137.717 6.344-.056 12.577 1.71 18.7z"/><path fill="#EC7974" d="M209.223 124.06c-1.158-1.71-2.537-3.309-4.358-4.302-1.82-.993-4.247-1.324-6.123-.331-2.041 1.048-3.089 3.254-3.42 5.461-.607 4.413 1.49 8.826 4.854 11.805 3.365 2.978 7.889 4.578 12.467 5.24-1.269-6.288-.276-13.349-3.42-17.873z"/><path fill="#D75B5F" d="M211.043 129.301c-1.104-1.324-2.317-2.648-3.917-3.365-1.6-.772-3.641-.827-5.13.166-1.6 1.048-2.151 3.144-1.71 4.909.441 1.765 1.655 3.255 3.089 4.413 2.372 1.986 5.406 3.31 8.55 3.806-.441-3.309-.827-6.509-.882-9.929z"/><path fill="#EC7974" d="M268.468 146.899c5.957-14.949 6.84-39.441 4.909-51.301-1.324-8.275-7.281-13.074-13.239-17.928-5.958-4.855-13.46-7.833-21.183-8.33-9.046.772-17.321 4.027-23.83 9.433-6.509 5.406-11.088 12.908-12.908 21.955 1.159 16.824 5.461 37.676 11.253 49.481 2.593 5.24 6.84 8.826 11.75 12.08 4.909 3.255 10.757 5.351 16.659 4.965 5.682-.386 11.419-2.813 15.777-6.454 4.358-3.641 8.66-8.605 10.812-13.901z"/><path fill="#21161A" d="M253.408 163.668c.331 6.288-.662 12.135-2.262 18.203-1.599 6.068-3.254 12.246-3.089 18.48.166 6.288 2.483 12.798 7.502 16.604-2.868-5.903-3.42-12.853-1.544-19.086-1.931 4.854.11 10.37 2.924 14.728 2.813 4.358 6.509 8.274 8.329 13.184 2.758-15.28 8.164-29.954 11.033-45.234 2.813-15.28 2.868-31.773-4.579-45.399-2.096 12.743-8.991 22.672-18.314 28.52z"/><path fill="#1E1E1E" d="M293.512 201.837c-.22.607-.551 1.214-.827 1.765-1.434 2.538-3.586 4.634-6.344 5.517-2.758 8.219-5.626 20.189-1.158 29.732-2.758.331-5.461.773-7.337-1.489-.165 3.806 2.207 5.792 4.027 8.109-7.337-1.048-13.736-5.847-15.997-12.908-1.821-5.682-1.655-11.75-.497-17.652.276-1.435.607-2.869.993-4.248 1.931-7.171 5.241-13.901 6.896-21.127 3.585-15.611 2.482-33.153-.773-49.316-3.585-17.928-9.764-34.201-15.059-44.46a80.774 80.774 0 0 0-3.2-5.683c-.993-1.6-1.93-2.868-2.758-3.806-5.792-6.51-10.095-10.591-18.59-8.77-6.178-1.49-11.087 2.095-14.838 7.556-1.766 2.538-3.2 5.406-4.413 8.44a39.878 39.878 0 0 0-.883 2.317c-7.723 21.459-6.344 44.461-20.19 55.77 2.593-9.985 2.428-17.873 2.097-28.519-5.792 14.066-10.316 28.684-14.95 42.254 3.2-20.906 6.51-42.034 13.184-62.003 2.262-6.84 4.965-13.57 8.164-20.079 3.641-7.447 8.385-14.949 15.832-18.535.772-.386 1.6-.662 2.483-.937 4.964-1.49 10.756-.662 14.838 2.537 1.545-4.523 6.179-8.385 11.309-7.999 4.082.552 7.943 1.986 11.529 3.972 4.909 2.758 9.267 6.675 12.797 11.143 6.013 7.668 9.819 16.88 13.019 26.147a230.996 230.996 0 0 1 4.468 14.508c5.02 18.314 7.833 37.18 8.44 56.156.221 7.005.11 14.066-.276 21.072-.386 3.641-.717 7.226-1.986 10.536z"/><path fill="#444" d="M217.995 85.112c-1.765 2.537-3.199 5.406-4.413 8.44-3.034-.717-6.123-.993-9.157-.22-5.13 1.323-8.992 5.405-11.584 10.039 2.261-6.84 4.964-13.57 8.164-20.08 3.641-7.446 8.385-14.949 15.832-18.534.772-.386 1.599-.662 2.482-.938-1.434 1.269-2.813 2.482-3.972 3.972-2.261 2.923-3.585 6.84-2.648 10.426.773 2.978 2.814 5.185 5.296 6.895zm69.119 29.129c-1.324-3.42-2.978-6.675-5.185-9.598-4.578-6.123-11.97-10.647-19.583-9.93-1.71.166-3.365.607-4.964 1.104a81.196 81.196 0 0 0-3.2-5.682 16.28 16.28 0 0 0 1.545-.441c3.089-.883 6.233-2.207 8.274-4.634 3.917-4.578 2.869-11.915-.717-16.77-1.765-2.371-3.972-4.247-6.399-5.902 4.91 2.758 9.268 6.675 12.798 11.143 6.013 7.668 9.819 16.88 13.018 26.147 1.6 4.799 3.089 9.654 4.413 14.563zm6.398 87.596c-.221.606-.552 1.213-.828 1.765l.993-5.958c.221-1.269.386-2.648-.22-3.751-.607-1.103-2.372-1.655-3.145-.662-1.544 1.986-5.351 1.214-7.061.607-1.765-.607-4.964-2.151-7.281-1.158-1.986.882-2.924 3.033-3.751 5.019-2.317 5.737-4.579 11.474-6.84 17.156a52.2 52.2 0 0 1 .993-4.248c1.93-7.171 5.24-13.901 6.895-21.127 3.586-15.611 2.482-33.153-.772-49.315 4.137 6.178 4.358 14.949 4.688 23.058.331 8.495 1.435 17.762 7.558 23.609 1.655 1.6 4.137 2.869 6.233 1.876 1.986-.938 2.538-3.42 2.869-5.572.662-4.302 1.213-8.605 1.71-12.908.22 7.006.11 14.067-.276 21.072-.166 3.641-.497 7.227-1.765 10.537z"/><path fill="#D75B5F" d="M241.382 122.354c-.662 2.592-.938 5.24-.773 7.888.055 1.324.221 2.648.497 3.916.276 1.269.662 2.538.331 3.807-.276 1.268-1.104 2.372-2.317 3.144-.497.331-1.103-.386-.607-.662.938-.607 1.655-1.489 1.931-2.482.331-1.214-.055-2.427-.331-3.641a27.84 27.84 0 0 1-.441-7.723c.11-1.434.386-2.868.717-4.303a.459.459 0 0 1 .551-.331c.276-.055.497.166.442.387z"/><path fill="#000" d="M196.26 260.921s6.674.496 28.022-17.321c4.193-3.531 12.246-2.152 10.812-18.314-1.599-18.369-5.571-22.176-5.571-25.265 0 0 3.034-5.075 3.144-7.281.11-2.207 1.159-6.951-1.489-8.882 0 0 .882-12.797-7.061-.661-7.944 12.19-2.482 41.647-2.482 41.647l-25.375 36.077zm57.921-68.511s-.828-9.378 1.268-10.757c2.097-1.379 9.213 8.44 9.213 8.44s9.819 13.35 7.502 19.859c-1.71 4.909-4.137 15.611-5.186 20.465a2.757 2.757 0 0 0 1.931 3.255c5.406 1.544 17.928 5.13 19.914 5.351 2.593.275 14.784 6.012 13.735 10.756-1.048 4.689-25.595 4.524-29.401 1.545-3.807-2.979-18.866-20.686-18.866-20.686s9.157-19.804 7.116-24.437c-1.986-4.579-7.226-13.791-7.226-13.791z" opacity=".12"/><path fill="#BC595F" d="M232.888 229.037c.938-6.785 0-13.79-2.648-19.913a50.45 50.45 0 0 0-1.985-9.874c-.276-.938-.717-2.041-1.71-2.317-.828-.221-1.766.386-2.152 1.103-.386.772-.441 1.71-.441 2.537-.221 9.985 2.427 19.859 8.936 28.464z"/><path fill="#EC7974" d="M218.931 238.469a1773.883 1773.883 0 0 1-4.302-31.057c-.055-.551-.111-1.048-.055-1.654.275-4.138.606-8.22 1.103-12.798a8.313 8.313 0 0 1 2.262-4.744c1.875-1.876 3.916-3.586 6.178-5.02.827-1.379 1.93-2.538 3.089-3.586.386-.331.882-.717 1.489-.606.552.11.828.662.993 1.268.441 1.545.055 3.145-.331 4.799.828.276 1.434.993 1.655 1.876.221.883.166 1.71.055 2.593-.496 3.806-2.041 7.391-4.192 10.315a106.871 106.871 0 0 1-.993 7.723c3.034 4.634 5.351 9.819 6.73 15.17.772 3.034 1.269 6.233.717 9.322-.497 3.089-2.151 6.123-4.854 7.668-2.703 1.544-6.454 1.379-9.544-1.269z"/><path stroke="#BC595F" stroke-miterlimit="10" stroke-width=".552" d="M228.859 185.682c-1.545 3.254-3.42 6.344-5.737 9.433-.717.993-1.324 2.151-1.6 3.365l-1.765 7.778m4.192-22.231c-1.544 2.593-3.309 5.075-5.35 7.557-.607.718-1.048 1.6-1.379 2.538-.828 2.979-1.545 6.123-1.986 9.157"/><path fill="#EC7974" d="M221.082 226.107c-9.047 4.579-18.038 8.22-27.637 11.474 0 0-1.324 1.214-1.048-.772-8.826-3.475-18.148-3.751-20.686-3.53-1.875 9.488-1.6 8.55-3.585 18.148-.662 3.365-.221 6.895 1.489 9.874.276.552.607 1.048.938 1.655 2.868 4.468 8.605 6.289 13.459 4.193 14.894-6.455 30.119-17.101 42.034-27.472.442-.386-1.379-.661-1.268-1.268.11-.607-.166-1.324-.497-1.876-1.324-2.592-2.813-7.171-3.199-10.426z"/><path fill="#BC595F" d="M248.608 234.226c-.331-6.84 1.158-13.735 4.468-19.637.607-3.255 1.6-6.565 2.813-9.654.387-.883.883-1.986 1.931-2.151.828-.111 1.71.496 2.041 1.324.331.772.276 1.71.221 2.592-.717 9.874-4.248 19.418-11.474 27.526z"/><path fill="#EC7974" d="M261.627 244.816c2.372-9.985 4.744-20.024 7.061-30.56.11-.552.165-1.048.165-1.655.055-4.137.11-8.275 0-12.853a8.042 8.042 0 0 0-1.82-4.91c-1.71-2.041-3.531-3.916-5.627-5.516-.717-1.434-1.71-2.703-2.758-3.917-.386-.386-.828-.772-1.434-.717-.552.056-.883.607-1.104 1.104-.551 1.489-.331 3.089-.11 4.799-.827.165-1.489.882-1.82 1.765-.276.772-.331 1.71-.276 2.538.165 3.806 1.379 7.557 3.199 10.646.056 2.372.055 4.689.331 7.778-3.42 4.358-6.233 9.267-7.998 14.508-.993 2.923-1.821 6.123-1.6 9.212.221 3.089 1.655 6.288 4.192 8.109 2.538 1.82 6.344 2.041 9.599-.331z"/><path stroke="#BC595F" stroke-miterlimit="10" stroke-width=".552" d="M256.441 191.305c1.268 3.365 2.813 6.62 4.909 9.93.662 1.048 1.048 2.261 1.269 3.475l1.048 7.943m-2.206-22.559c1.324 2.759 2.814 5.351 4.689 7.944.552.772.883 1.71 1.048 2.593a89.61 89.61 0 0 1 1.159 9.322"/><path fill="#EC7974" d="M254.014 245.812a455.374 455.374 0 0 0 42.696 20.851c2.427.993 3.641 1.103 5.296.386 1.655-.717 3.034-1.985 3.972-3.53 2.316-3.696 6.674-11.584 2.978-24.768-6.895.441-12.301-1.103-21.403.11.662 2.317 0 1.49-1.269 1.49-9.212-1.545-17.927-4.965-27.029-7.282-1.655 4.358-3.531 8.661-5.241 12.743z"/><path fill="#fff" d="M209.499 124.067c.166 5.13 3.476 9.709 8.385 11.419 4.91 1.71 10.536 0 13.736-4.082 3.199-4.082 3.475-9.874.717-14.287-2.758-4.358-8.109-6.565-13.129-5.462-5.737 1.269-9.819 6.565-9.709 12.412 0 .441.717.441.717 0-.11-4.854 2.869-9.433 7.447-11.198 4.524-1.765 9.819-.496 13.019 3.199 3.254 3.696 3.806 9.157 1.434 13.405-2.427 4.248-7.392 6.675-12.246 5.792-5.406-.993-9.433-5.682-9.654-11.198-.055-.441-.717-.441-.717 0zm32.328-.885c.165 5.13 3.475 9.709 8.385 11.419 4.909 1.71 10.536 0 13.735-4.082 3.2-4.082 3.475-9.874.717-14.287-2.758-4.358-8.109-6.565-13.128-5.461-5.737 1.268-9.819 6.564-9.709 12.411 0 .442.717.442.717 0-.11-4.854 2.869-9.433 7.447-11.198 4.523-1.765 9.819-.496 13.018 3.2 3.255 3.696 3.807 9.157 1.435 13.404-2.427 4.248-7.392 6.675-12.246 5.792-5.406-.993-9.433-5.681-9.654-11.198-.055-.441-.717-.441-.717 0z"/><path fill="#fff" d="M234.154 123.673c.606-.607 1.434-1.103 2.206-1.434 1.986-.718 3.972-.111 5.572 1.213.331.276.827-.221.496-.496-1.71-1.435-3.916-2.207-6.068-1.435-.993.331-1.986.883-2.703 1.655-.331.331.166.828.497.497z"/><path fill="#1E1E1E" d="M230.572 125.053c-.055-2.979-1.103-5.02-2.702-6.233-1.38-1.103-3.09-1.876-4.8-1.876-3.365-.055-6.399 3.531-8.384 6.344l-2.097.11 3.365 2.703s2.041-4.247 7.613-4.027c4.909.166 7.005 2.979 7.005 2.979zm15.996.276c.22-2.979 1.379-5.075 3.034-6.344 1.434-1.158 3.199-1.986 4.909-2.041 3.42-.22 6.234 3.31 8.054 6.068l2.096.055-3.53 2.814s-1.545-4.965-7.116-4.579c-4.965.331-7.447 4.027-7.447 4.027zm-30.615-17.377c.276 1.269 2.703.552 5.737-.165 3.034-.717 5.516-1.103 5.24-2.427-.275-1.269-2.978-1.765-6.067-1.048-3.034.717-5.241 2.372-4.91 3.64zm28.407-1.985c-.221 1.324 2.317 1.49 5.406 1.986 3.089.497 5.571 1.048 5.737-.275.221-1.324-2.151-2.759-5.241-3.2-3.033-.496-5.681.166-5.902 1.489z"/><path fill="#99292B" d="M232.722 150.979c-1.765-1.048-3.089-2.482-3.972-4.303-.331-.662-.772-1.324-.882-2.041-.056-.331-.166-.607.331-.496.22 1.489 1.379 1.986 2.647 2.261 3.034.607 6.068.552 9.102.221 2.758-.276 5.461-.717 8.054-1.655 1.489-.496 2.538-1.324 2.703-2.979.607.386.276 1.048.221 1.49-.221 1.765-.883 3.365-1.986 4.744-.221.276-.386.551-.607.827-.221.276-.496.497-.883.386-.386-.22-.772-.276-1.213-.331-.883-.055-1.765 0-2.648.055-2.703.276-5.406.497-8.054.773-.938.165-2.041.22-2.813 1.048z"/><path fill="#FEFDFD" d="M250.759 141.987c-.166 1.655-1.269 2.483-2.703 2.979-2.593.883-5.296 1.379-8.054 1.655-3.034.331-6.068.386-9.102-.221-1.269-.275-2.427-.772-2.648-2.261 5.296.22 10.592-.221 15.887-.883 2.207-.276 4.413-.717 6.62-1.269zm-18.037 8.992c.772-.828 1.82-.883 2.813-.993 2.703-.276 5.406-.497 8.054-.773.882-.11 1.765-.165 2.647-.055.442.055.828.111 1.214.331-.883 1.379-2.372 1.821-3.751 2.317-2.979 1.159-5.958.883-8.992.166-.662-.221-1.158-.883-1.985-.993z"/><path fill="#D75B5F" d="M243.919 154.124a13.63 13.63 0 0 1-5.957.496c.496 1.159 1.875 1.986 3.144 1.876 1.269-.165 2.483-1.158 2.813-2.372z"/></g><path fill="#FFDF85" d="M360.274 84.85c1.078-1.857 1.798-5.752 1.917-7.85.36 1.858.72 3.775 1.559 5.454.839 1.738 1.078 2.756 2.876 3.475.839.36 2.817 1.02 3.716 1.199-7.012.3-7.671 10.667-7.671 10.667s-1.438-6.292-2.697-8.09c-.779-1.139-4.974-2.757-4.974-2.757s4.674-1.078 5.274-2.097zM98.072 80.607c1.438-2.457 2.397-7.73 2.636-10.607.48 2.517 1.019 5.034 2.098 7.371 1.079 2.338 1.498 3.716 3.835 4.675 1.139.48 3.776 1.378 4.975 1.618-9.409.36-10.308 14.383-10.308 14.383s-1.918-8.45-3.656-10.907C96.573 85.64 91 83.424 91 83.424s6.233-1.438 7.072-2.817zm311.126 256.157c1.056-1.807 1.77-5.677 1.917-7.764.363 1.841.732 3.704 1.533 5.403.801 1.698 1.085 2.705 2.82 3.422.842.348 2.761 1.027 3.663 1.166-6.889.267-7.565 10.525-7.565 10.525s-1.399-6.184-2.686-7.994c-.789-1.111-4.88-2.711-4.88-2.711s4.622-1.062 5.198-2.047zm-357.001-85c1.056-1.807 1.77-5.677 1.917-7.764.363 1.841.732 3.704 1.533 5.403.8 1.698 1.086 2.704 2.82 3.422.843.348 2.761 1.027 3.663 1.164-6.89.269-7.565 10.527-7.565 10.527s-1.4-6.184-2.686-7.994c-.79-1.111-4.879-2.713-4.879-2.713s4.62-1.06 5.197-2.045z"/></svg>